# xmcd CD database file
#
# Track frame offsets:
#	150
#	30432
#	78101
#	105963
#	135026
#	171021
#	204195
#	242682
#	273454
#	303078
#
# Disc length: 4443 seconds
#
# Revision: 0
# Processed by: cddbd v1.5.2PL0 Copyright (c) Steve Scherf et al.
# Submitted via: CDex 1.51
#
DISCID=6411590a
DTITLE=Brad Leali - Claus Raible Quartet - D.A.'s Time
DYEAR=2007
DGENRE=Jazz
TTITLE0=Currawong
TTITLE1=Puddin' Time
TTITLE2=I guess I hang my tears out to dry
TTITLE3=Catina
TTITLE4=Manteca
TTITLE5=Little Freddie steps
TTITLE6=D.A.'s Time
TTITLE7=I'll keep loving you
TTITLE8=Not yet
TTITLE9=Blues for Lizzie
EXTD=YEAR: 2007
EXTT0=
EXTT1=
EXTT2=
EXTT3=
EXTT4=
EXTT5=
EXTT6=
EXTT7=
EXTT8=
EXTT9=
PLAYORDER=
